<svg width="32" height="32" viewBox="0 0 32 32" fill="none" xmlns="http://www.w3.org/2000/svg">
<path d="M0 15.9688C0 7.14948 7.14948 0 15.9688 0V0C24.7881 0 31.9376 7.14948 31.9376 15.9688V15.9688C31.9376 24.7881 24.7881 31.9376 15.9688 31.9376V31.9376C7.14948 31.9376 0 24.7881 0 15.9688V15.9688Z" fill="white"/>
<path d="M20.6575 16H11.3424" stroke="#6564CC" stroke-width="1.33073" stroke-linecap="round" stroke-linejoin="round"/>
<path d="M16 20.6569L11.3424 15.9994L16 11.3418" stroke="#6564CC" stroke-width="1.33073" stroke-linecap="round" stroke-linejoin="round"/>
<path d="M15.9688 30.6069C7.88442 30.6069 1.33073 24.0532 1.33073 15.9688H-1.33073C-1.33073 25.5231 6.41453 33.2683 15.9688 33.2683V30.6069ZM30.6069 15.9688C30.6069 24.0532 24.0532 30.6069 15.9688 30.6069V33.2683C25.5231 33.2683 33.2683 25.5231 33.2683 15.9688H30.6069ZM15.9688 1.33073C24.0532 1.33073 30.6069 7.88442 30.6069 15.9688H33.2683C33.2683 6.41453 25.5231 -1.33073 15.9688 -1.33073V1.33073ZM15.9688 -1.33073C6.41453 -1.33073 -1.33073 6.41453 -1.33073 15.9688H1.33073C1.33073 7.88442 7.88442 1.33073 15.9688 1.33073V-1.33073Z" fill="#6564CC"/>
</svg>
