<svg width="32" height="32" viewBox="0 0 32 32" fill="none" xmlns="http://www.w3.org/2000/svg">
<path d="M31.9376 15.9687C31.9376 24.788 24.7881 31.9375 15.9688 31.9375C7.1495 31.9375 2.28882e-05 24.788 2.28882e-05 15.9687C2.28882e-05 7.14938 7.1495 -9.91821e-05 15.9688 -9.91821e-05C24.7881 -9.91821e-05 31.9376 7.14938 31.9376 15.9687Z" fill="white"/>
<path d="M11.2801 15.9375L20.5952 15.9375" stroke="#6564CC" stroke-width="1.33073" stroke-linecap="round" stroke-linejoin="round"/>
<path d="M15.9376 11.2806L20.5952 15.9381L15.9376 20.5957" stroke="#6564CC" stroke-width="1.33073" stroke-linecap="round" stroke-linejoin="round"/>
<path d="M15.9688 1.33064C24.0532 1.33064 30.6069 7.88432 30.6069 15.9687H33.2684C33.2684 6.41443 25.5231 -1.33083 15.9688 -1.33083V1.33064ZM1.33076 15.9687C1.33076 7.88432 7.88444 1.33064 15.9688 1.33064V-1.33083C6.41455 -1.33083 -1.33071 6.41443 -1.33071 15.9687H1.33076ZM15.9688 30.6068C7.88444 30.6068 1.33076 24.0531 1.33076 15.9687H-1.33071C-1.33071 25.523 6.41455 33.2682 15.9688 33.2682V30.6068ZM15.9688 33.2682C25.5231 33.2682 33.2684 25.523 33.2684 15.9687H30.6069C30.6069 24.0531 24.0532 30.6068 15.9688 30.6068V33.2682Z" fill="#6564CC"/>
</svg>
