<svg width="170" height="170" viewBox="0 0 170 170" fill="none" xmlns="http://www.w3.org/2000/svg">
<rect width="170" height="170" rx="34" fill="#6564CC"/>
<path d="M20 30V30C28.1002 30 34.6666 36.5665 34.6666 44.6667V103.333V103.333C26.5665 103.333 20 96.7668 20 88.6666V30Z" fill="#FCFCFC"/>
<path d="M20 88.6665H93.3332V103.333H34.6666C26.5665 103.333 20 96.7666 20 88.6665V88.6665Z" fill="#FCFCFC"/>
<path d="M78.6664 44.6667C78.6664 36.5665 85.2329 30 93.3331 30V30V140H78.6664V44.6667Z" fill="#FCFCFC"/>
<path d="M78.9335 59.3011C78.9335 51.193 85.5064 44.6201 93.6145 44.6201H137.586C145.694 44.6201 152.267 51.193 152.267 59.3011V59.3011H78.9335V59.3011Z" fill="white"/>
<path d="M137.6 44.6201V44.6201C145.7 44.6201 152.267 51.1866 152.267 59.2867V118.025H137.6V44.6201Z" fill="white"/>
<rect x="93" y="104" width="47" height="14.68" fill="white"/>
<rect x="137.6" y="116" width="14.65" height="5" fill="white"/>
<path d="M137.6 118.025H152.267V125.38C152.267 133.48 145.7 140.047 137.6 140.047V140.047V118.025Z" fill="white"/>
<path d="M86.2665 140.046C86.2665 131.938 92.8394 125.365 100.948 125.365H152.266V125.365C152.266 133.474 145.693 140.046 137.585 140.046H86.2665V140.046Z" fill="white"/>
</svg>
